<svg width="176" height="176" viewBox="0 0 176 176" fill="none" xmlns="http://www.w3.org/2000/svg">
<mask id="mask0_21_258" style="mask-type:luminance" maskUnits="userSpaceOnUse" x="57" y="52" width="39" height="72">
<path d="M57.2441 52.8H95.1704V123.2H57.2441V52.8Z" fill="white"/>
</mask>
<g mask="url(#mask0_21_258)">
<path d="M94.0551 110.62C93.9923 110.62 93.9295 110.627 93.8667 110.639C93.8047 110.652 93.7444 110.67 93.6859 110.694C93.6273 110.719 93.5713 110.749 93.5187 110.783C93.466 110.819 93.4177 110.859 93.3727 110.904C93.3277 110.949 93.2878 110.997 93.2522 111.05C93.2174 111.103 93.1877 111.159 93.163 111.217C93.1393 111.276 93.1206 111.336 93.1079 111.398C93.096 111.461 93.09 111.524 93.09 111.586V117.034C93.0892 117.172 93.0824 117.31 93.0688 117.448C93.0552 117.586 93.0349 117.723 93.0077 117.86C92.9806 117.995 92.9466 118.129 92.9059 118.262C92.866 118.395 92.8193 118.525 92.7658 118.653C92.7132 118.781 92.6538 118.906 92.5884 119.028C92.5231 119.151 92.4518 119.269 92.3745 119.385C92.2973 119.5 92.215 119.611 92.1267 119.718C92.0393 119.825 91.9459 119.928 91.8483 120.026C91.7498 120.124 91.6471 120.217 91.5402 120.305C91.4333 120.393 91.3221 120.475 91.2066 120.553C91.0912 120.63 90.9724 120.701 90.8502 120.767C90.7279 120.832 90.6032 120.891 90.475 120.944C90.3468 120.997 90.2161 121.044 90.0837 121.085C89.9513 121.125 89.8172 121.159 89.6814 121.186C89.5448 121.213 89.4081 121.233 89.2698 121.247C89.1323 121.261 88.9939 121.267 88.8556 121.268H63.407C63.2687 121.267 63.1303 121.261 62.992 121.247C62.8545 121.233 62.717 121.213 62.5812 121.186C62.4454 121.159 62.3113 121.125 62.178 121.085C62.0456 121.044 61.9149 120.997 61.7876 120.944C61.6594 120.891 61.5338 120.832 61.4116 120.767C61.2894 120.701 61.1705 120.63 61.0559 120.553C60.9405 120.475 60.8293 120.393 60.7215 120.305C60.6146 120.217 60.5119 120.124 60.4143 120.026C60.3158 119.928 60.2233 119.825 60.135 119.718C60.0476 119.611 59.9644 119.5 59.888 119.385C59.8108 119.269 59.7395 119.151 59.6742 119.028C59.6088 118.906 59.5494 118.781 59.4959 118.653C59.4433 118.525 59.3966 118.395 59.3559 118.262C59.316 118.129 59.282 117.995 59.2549 117.86C59.2277 117.723 59.2073 117.586 59.1937 117.448C59.1793 117.31 59.1725 117.172 59.1725 117.034V58.9815C59.1725 58.8423 59.1793 58.7048 59.1937 58.5665C59.2073 58.4281 59.2277 58.2915 59.2549 58.1557C59.282 58.0199 59.316 57.8858 59.3559 57.7525C59.3966 57.6201 59.4433 57.4894 59.4959 57.3621C59.5494 57.2339 59.6088 57.1083 59.6742 56.9861C59.7395 56.8639 59.8108 56.745 59.888 56.6296C59.9644 56.515 60.0476 56.4038 60.135 56.296C60.2233 56.1891 60.3158 56.0864 60.4143 55.9888C60.5119 55.8903 60.6146 55.7978 60.7215 55.7095C60.8293 55.6213 60.9405 55.5389 61.0559 55.4617C61.1705 55.3853 61.2894 55.314 61.4116 55.2487C61.5338 55.1833 61.6594 55.1239 61.7876 55.0704C61.9149 55.0178 62.0456 54.9703 62.178 54.9304C62.3113 54.8896 62.4454 54.8565 62.5812 54.8294C62.717 54.8022 62.8545 54.7818 62.992 54.7674C63.1303 54.7538 63.2687 54.747 63.407 54.747H66.55L67.6873 57.5785C67.7459 57.7262 67.8155 57.8688 67.8953 58.0054C67.9751 58.1429 68.065 58.2728 68.1644 58.3967C68.2637 58.5198 68.3714 58.6361 68.4886 58.743C68.6057 58.8508 68.7296 58.9484 68.8612 59.0375C68.9919 59.1267 69.1294 59.2048 69.2728 59.2735C69.4163 59.3414 69.5631 59.3991 69.715 59.445C69.867 59.4916 70.0214 59.5264 70.1785 59.5494C70.3355 59.5723 70.4934 59.5833 70.6521 59.5833H81.8397C81.9984 59.5833 82.1562 59.5723 82.3133 59.5494C82.4703 59.5264 82.6239 59.4916 82.7758 59.445C82.9278 59.3991 83.0755 59.3414 83.2181 59.2735C83.3615 59.2048 83.499 59.1267 83.6306 59.0375C83.7621 58.9484 83.886 58.8508 84.0023 58.743C84.1194 58.6352 84.2272 58.5198 84.3265 58.3967C84.4258 58.2728 84.5158 58.1429 84.5956 58.0054C84.6754 57.8688 84.745 57.7262 84.8035 57.5785L85.9409 54.747H88.8556C88.9939 54.747 89.1323 54.7538 89.2698 54.7674C89.4081 54.781 89.5448 54.8022 89.6814 54.8294C89.8172 54.8565 89.9513 54.8896 90.0837 54.9304C90.2161 54.9703 90.3468 55.0169 90.475 55.0704C90.6032 55.1239 90.7279 55.1825 90.8502 55.2478C90.9724 55.314 91.0912 55.3845 91.2066 55.4617C91.3221 55.5389 91.4333 55.6213 91.5402 55.7095C91.6471 55.7978 91.7498 55.8903 91.8483 55.9888C91.9459 56.0864 92.0393 56.1891 92.1267 56.296C92.215 56.403 92.2973 56.5142 92.3745 56.6296C92.4518 56.745 92.5231 56.8639 92.5884 56.9861C92.6538 57.1083 92.7132 57.2331 92.7658 57.3612C92.8193 57.4894 92.866 57.6201 92.9059 57.7525C92.9466 57.8849 92.9806 58.0199 93.0077 58.1557C93.0349 58.2915 93.0552 58.4281 93.0688 58.5665C93.0824 58.704 93.0892 58.8423 93.09 58.9815V65.8379C93.09 65.9007 93.096 65.9635 93.1079 66.0263C93.1206 66.0882 93.1393 66.1485 93.163 66.2071C93.1877 66.2656 93.2174 66.3217 93.2522 66.3743C93.2878 66.4269 93.3277 66.4753 93.3727 66.5203C93.4177 66.5652 93.466 66.6051 93.5187 66.6408C93.5713 66.6756 93.6273 66.7053 93.6859 66.7299C93.7444 66.7545 93.8047 66.7723 93.8667 66.7851C93.9295 66.797 93.9923 66.8038 94.0551 66.8038C94.1187 66.8038 94.1816 66.797 94.2435 66.7851C94.3063 66.7723 94.3666 66.7545 94.4252 66.7299C94.4837 66.7053 94.5389 66.6756 94.5924 66.6408C94.645 66.6051 94.6934 66.5652 94.7383 66.5203C94.7833 66.4753 94.8232 66.4269 94.858 66.3743C94.8937 66.3217 94.9234 66.2656 94.948 66.2071C94.9718 66.1485 94.9904 66.0882 95.0023 66.0263C95.015 65.9635 95.021 65.9007 95.021 65.8379V58.9815C95.021 58.7795 95.0108 58.5784 94.9913 58.3772C94.9709 58.176 94.9412 57.9766 94.9013 57.7788C94.8623 57.5811 94.813 57.3858 94.7545 57.1923C94.6951 56.9988 94.6272 56.8095 94.5499 56.6228C94.4727 56.4361 94.3861 56.2544 94.291 56.0762C94.196 55.898 94.0924 55.7257 93.9796 55.5576C93.8675 55.3896 93.7478 55.2274 93.6197 55.0713C93.4915 54.9159 93.3557 54.7666 93.2131 54.6231C93.0705 54.4805 92.9211 54.3456 92.765 54.2174C92.6088 54.0892 92.4467 53.9687 92.2795 53.8567C92.1114 53.7446 91.9383 53.6411 91.7609 53.5452C91.5826 53.4501 91.4002 53.3644 91.2134 53.2863C91.0275 53.2091 90.8374 53.1412 90.6448 53.0826C90.4512 53.024 90.256 52.9748 90.0574 52.9349C89.8596 52.8959 89.6602 52.8662 89.459 52.8458C89.2587 52.8254 89.0567 52.8161 88.8556 52.8152H63.407C63.205 52.8161 63.0039 52.8254 62.8027 52.8458C62.6015 52.8662 62.4021 52.8959 62.2043 52.9349C62.0066 52.9748 61.8113 53.024 61.6178 53.0826C61.4243 53.1412 61.235 53.2091 61.0483 53.2863C60.8616 53.3644 60.6799 53.4501 60.5017 53.5452C60.3235 53.6411 60.1512 53.7446 59.9831 53.8567C59.815 53.9687 59.6529 54.0892 59.4976 54.2174C59.3414 54.3456 59.1921 54.4805 59.0486 54.6231C58.906 54.7666 58.7711 54.9159 58.6429 55.0713C58.5147 55.2274 58.3942 55.3896 58.2822 55.5576C58.1701 55.7257 58.0666 55.898 57.9715 56.0762C57.8756 56.2544 57.7899 56.4361 57.7127 56.6228C57.6346 56.8095 57.5667 56.9988 57.5081 57.1923C57.4495 57.3858 57.4003 57.5811 57.3604 57.7788C57.3214 57.9766 57.2917 58.176 57.2713 58.3772C57.2518 58.5784 57.2416 58.7795 57.2407 58.9815V117.034C57.2416 117.236 57.2518 117.437 57.2713 117.637C57.2917 117.838 57.3214 118.038 57.3604 118.236C57.4003 118.434 57.4495 118.629 57.5081 118.823C57.5667 119.016 57.6346 119.206 57.7127 119.392C57.7899 119.578 57.8756 119.761 57.9715 119.939C58.0666 120.116 58.1701 120.29 58.2822 120.458C58.3942 120.625 58.5147 120.787 58.6429 120.943C58.7711 121.099 58.906 121.249 59.0486 121.391C59.1921 121.534 59.3414 121.67 59.4976 121.798C59.6529 121.926 59.815 122.046 59.9831 122.158C60.1512 122.271 60.3235 122.374 60.5017 122.469C60.6799 122.564 60.8616 122.651 61.0483 122.728C61.235 122.805 61.4243 122.873 61.6178 122.933C61.8113 122.991 62.0066 123.04 62.2043 123.079C62.4021 123.119 62.6015 123.149 62.8027 123.169C63.0039 123.189 63.205 123.199 63.407 123.199H88.8556C89.0567 123.199 89.2587 123.189 89.459 123.169C89.6602 123.149 89.8596 123.119 90.0574 123.079C90.256 123.04 90.4512 122.991 90.6448 122.933C90.8374 122.873 91.0275 122.805 91.2134 122.728C91.4002 122.651 91.5826 122.564 91.7609 122.469C91.9383 122.374 92.1114 122.271 92.2795 122.158C92.4467 122.046 92.6088 121.926 92.765 121.798C92.9211 121.67 93.0705 121.534 93.2131 121.391C93.3557 121.249 93.4915 121.099 93.6197 120.943C93.7478 120.787 93.8675 120.625 93.9796 120.458C94.0924 120.29 94.196 120.116 94.291 119.939C94.3861 119.761 94.4727 119.578 94.5499 119.392C94.6272 119.206 94.6951 119.016 94.7545 118.823C94.813 118.629 94.8623 118.434 94.9013 118.236C94.9412 118.038 94.9709 117.838 94.9913 117.637C95.0108 117.437 95.021 117.236 95.021 117.034V111.586C95.021 111.524 95.015 111.461 95.0023 111.398C94.9904 111.336 94.9718 111.276 94.948 111.217C94.9234 111.159 94.8937 111.103 94.858 111.05C94.8232 110.997 94.7833 110.949 94.7383 110.904C94.6934 110.859 94.645 110.819 94.5924 110.783C94.5389 110.749 94.4837 110.719 94.4252 110.694C94.3666 110.67 94.3063 110.652 94.2435 110.639C94.1816 110.627 94.1187 110.62 94.0551 110.62ZM83.8597 54.747L83.011 56.8596C82.9643 56.9767 82.9015 57.0845 82.8225 57.1821C82.7436 57.2806 82.6519 57.3655 82.5475 57.4359C82.4423 57.5064 82.3302 57.5607 82.2097 57.5972C82.0883 57.6337 81.9653 57.6524 81.8388 57.6515H70.6512C70.5248 57.6524 70.4017 57.6337 70.2812 57.5972C70.1606 57.5607 70.0478 57.5064 69.9434 57.4359C69.839 57.3655 69.7473 57.2806 69.6675 57.1821C69.5886 57.0845 69.5258 56.9767 69.4791 56.8596L68.6312 54.747H83.8597Z" fill="#E41B3F"/>
</g>
<mask id="mask1_21_258" style="mask-type:luminance" maskUnits="userSpaceOnUse" x="69" y="68" width="50" height="40">
<path d="M69.3136 68.879H118.681V107.556H69.3136V68.879Z" fill="white"/>
</mask>
<g mask="url(#mask1_21_258)">
<path d="M117.941 69.4816C117.159 68.7585 115.155 68.6685 115.337 70.1445C115.349 70.2065 115.368 70.2676 115.391 70.3262C115.415 70.3847 115.445 70.4407 115.48 70.4934C115.514 70.546 115.554 70.5952 115.599 70.6402C115.643 70.6852 115.692 70.7259 115.744 70.7616C115.797 70.7972 115.852 70.8269 115.911 70.8515C115.969 70.8762 116.03 70.8948 116.092 70.9076C116.154 70.9203 116.217 70.9262 116.28 70.9271C116.344 70.9271 116.406 70.9211 116.468 70.9093C116.512 70.9008 116.554 70.9025 116.597 70.9127C116.639 70.9237 116.677 70.9424 116.71 70.9704C116.744 70.9984 116.771 71.0315 116.789 71.0714C116.808 71.1104 116.817 71.152 116.817 71.1961V100.828C116.817 100.898 116.795 100.96 116.75 101.013C116.706 101.068 116.65 101.102 116.581 101.115L94.0551 105.493L71.5314 101.115C71.4627 101.102 71.4058 101.068 71.3608 101.014C71.3167 100.96 71.2938 100.898 71.2938 100.828V71.1961C71.2929 71.1045 71.3277 71.0289 71.399 70.9712C71.4703 70.9118 71.5518 70.8914 71.6426 70.9093C72.9107 71.1104 73.2502 69.2932 72.0084 69.0131C71.9278 68.9978 71.8471 68.9868 71.7657 68.98C71.6842 68.9732 71.6027 68.9707 71.5212 68.9732C71.4397 68.9758 71.3583 68.9826 71.2776 68.9944C71.1961 69.0055 71.1164 69.0208 71.0374 69.0411C70.9576 69.0615 70.8804 69.0861 70.804 69.115C70.7276 69.143 70.6529 69.1761 70.5799 69.2134C70.5069 69.2499 70.4365 69.2907 70.3677 69.3357C70.2998 69.3806 70.2336 69.429 70.1708 69.4808C70.108 69.5326 70.0478 69.5877 69.9909 69.6471C69.934 69.7057 69.8806 69.7668 69.8305 69.8313C69.7804 69.8958 69.7337 69.9629 69.6904 70.0325C69.648 70.1021 69.609 70.1742 69.5742 70.2481C69.5394 70.3219 69.5088 70.3975 69.4825 70.4747C69.4562 70.5519 69.4333 70.63 69.4154 70.7098C69.3976 70.7896 69.3849 70.8702 69.3755 70.9517C69.3662 71.0332 69.362 71.1138 69.362 71.1961V100.828C69.362 100.956 69.373 101.083 69.3959 101.209C69.418 101.335 69.4502 101.459 69.4935 101.579C69.5368 101.699 69.5903 101.815 69.6539 101.927C69.7167 102.038 69.7897 102.143 69.8712 102.241C69.9527 102.34 70.0418 102.432 70.1386 102.515C70.2353 102.598 70.3389 102.673 70.4492 102.738C70.5587 102.803 70.6742 102.859 70.793 102.905C70.9127 102.951 71.0357 102.986 71.1613 103.01L93.8709 107.425C93.932 107.436 93.994 107.442 94.0551 107.443C94.1171 107.442 94.179 107.436 94.2393 107.425L116.951 103.01C117.076 102.986 117.199 102.95 117.318 102.904C117.438 102.858 117.552 102.803 117.663 102.738C117.772 102.672 117.876 102.598 117.972 102.514C118.07 102.431 118.159 102.34 118.241 102.241C118.321 102.142 118.394 102.037 118.457 101.926C118.521 101.815 118.573 101.699 118.618 101.579C118.661 101.458 118.693 101.335 118.715 101.209C118.737 101.083 118.748 100.956 118.749 100.828V71.1961C118.749 70.8643 118.679 70.5485 118.538 70.2481C118.396 69.9476 118.197 69.6921 117.941 69.4816Z" fill="#E41B3F"/>
</g>
<path d="M76.6529 65.7869C76.5035 65.7827 76.3549 65.7929 76.2081 65.8184C76.0613 65.843 75.9178 65.8829 75.7786 65.9363C75.6394 65.9907 75.507 66.0577 75.3814 66.1375C75.2558 66.2181 75.1387 66.3098 75.0317 66.4133C74.9239 66.5169 74.828 66.6306 74.744 66.7537C74.6591 66.8759 74.587 67.0066 74.5284 67.1433C74.4698 67.2808 74.4257 67.4225 74.3951 67.5685C74.3646 67.7145 74.3493 67.8622 74.3485 68.0116V96.6795C74.3485 96.8229 74.3612 96.9646 74.3883 97.1047C74.4155 97.2456 74.4554 97.3814 74.5089 97.5146C74.5623 97.6471 74.6286 97.7735 74.7058 97.8932C74.7839 98.0129 74.8721 98.1241 74.9723 98.2268C75.0716 98.3295 75.1794 98.422 75.2974 98.5035C75.4145 98.5849 75.5384 98.6545 75.6691 98.7123C75.7998 98.77 75.9348 98.815 76.0748 98.8464C76.214 98.8778 76.3549 98.8956 76.4984 98.8998C86.7744 99.247 93.41 104.006 93.4958 104.063C93.5789 104.121 93.6681 104.166 93.7648 104.196C93.8616 104.226 93.96 104.241 94.061 104.24C94.162 104.24 94.2613 104.224 94.3573 104.193C94.4532 104.161 94.5423 104.116 94.6246 104.057C94.6908 104.009 101.355 99.2427 111.613 98.8998C111.756 98.8956 111.897 98.8778 112.036 98.8464C112.175 98.815 112.311 98.77 112.442 98.7123C112.573 98.6554 112.697 98.5849 112.814 98.5035C112.932 98.422 113.039 98.3295 113.14 98.2268C113.239 98.1241 113.327 98.0129 113.405 97.8932C113.483 97.7735 113.549 97.6471 113.602 97.5146C113.656 97.3814 113.696 97.2456 113.723 97.1047C113.75 96.9646 113.763 96.8229 113.763 96.6795V68.0116C113.788 66.7885 112.685 65.7148 111.459 65.7869C102.261 66.1171 95.9326 69.7184 94.0559 70.9262C92.1793 69.7184 85.8509 66.1171 76.6529 65.7869ZM76.2802 96.6795V68.0116C76.2802 67.9275 76.31 67.8571 76.3711 67.7994C84.941 67.7289 91.6387 71.7045 93.0892 72.6059V101.525C90.4572 100.009 84.5981 97.2388 76.5629 96.9689C76.5247 96.968 76.4882 96.9604 76.4542 96.9451C76.4194 96.9298 76.3889 96.9095 76.3626 96.8823C76.3363 96.8552 76.3159 96.8238 76.3015 96.789C76.287 96.7542 76.2802 96.7177 76.2802 96.6795ZM111.528 67.717C111.568 67.7153 111.606 67.7213 111.643 67.7357C111.681 67.7501 111.714 67.7705 111.743 67.7985C111.771 67.8265 111.793 67.8588 111.809 67.8961C111.824 67.9326 111.831 67.9717 111.831 68.0116V96.6795C111.831 96.7177 111.823 96.7542 111.81 96.789C111.795 96.8238 111.775 96.8552 111.748 96.8823C111.722 96.9086 111.692 96.9298 111.657 96.9451C111.622 96.9604 111.586 96.968 111.548 96.9689C103.513 97.2388 97.6539 100.008 95.021 101.525C95.021 101.523 95.021 74.2805 95.021 74.2788V72.6059C96.5938 71.595 102.73 68.0328 111.528 67.717Z" fill="#E41B3F"/>
<path d="M66.2029 118.364C66.2029 118.427 66.2096 118.49 66.2215 118.552C66.2343 118.615 66.2521 118.675 66.2767 118.734C66.3013 118.792 66.331 118.848 66.3658 118.901C66.4015 118.954 66.4414 119.002 66.4863 119.047C66.5305 119.092 66.5797 119.132 66.6323 119.167C66.6849 119.202 66.741 119.232 66.7995 119.257C66.8581 119.28 66.9184 119.299 66.9803 119.311C67.0431 119.324 67.1059 119.33 67.1687 119.33H85.093C85.1566 119.33 85.2194 119.324 85.2814 119.311C85.3434 119.299 85.4045 119.28 85.463 119.257C85.5216 119.232 85.5768 119.202 85.6294 119.167C85.682 119.132 85.7312 119.092 85.7762 119.047C85.8212 119.002 85.8611 118.954 85.8959 118.901C85.9316 118.848 85.9613 118.792 85.985 118.734C86.0096 118.675 86.0283 118.615 86.0402 118.552C86.0529 118.49 86.0589 118.427 86.0589 118.364C86.0589 118.301 86.0529 118.238 86.0402 118.175C86.0283 118.113 86.0096 118.053 85.985 117.995C85.9613 117.936 85.9316 117.88 85.8959 117.827C85.8611 117.775 85.8212 117.726 85.7762 117.681C85.7312 117.636 85.682 117.596 85.6294 117.561C85.5768 117.526 85.5216 117.496 85.463 117.472C85.4045 117.448 85.3434 117.429 85.2814 117.417C85.2194 117.405 85.1566 117.399 85.093 117.399H67.1687C67.1059 117.399 67.0431 117.405 66.9803 117.417C66.9184 117.429 66.8581 117.448 66.7995 117.472C66.741 117.496 66.6849 117.526 66.6323 117.561C66.5797 117.596 66.5305 117.636 66.4863 117.681C66.4414 117.726 66.4015 117.775 66.3658 117.827C66.331 117.88 66.3013 117.936 66.2767 117.995C66.2521 118.053 66.2343 118.113 66.2215 118.175C66.2096 118.238 66.2029 118.301 66.2029 118.364Z" fill="#E41B3F"/>
<path d="M89.2358 75.973C86.4578 74.8569 83.5839 74.1185 80.6123 73.756C79.34 73.6423 79.1117 75.4731 80.3772 75.6725C83.1807 76.0146 85.8934 76.7114 88.5144 77.7639C89.7043 78.2061 90.4105 76.4908 89.2358 75.973Z" fill="#E41B3F"/>
<path d="M89.2358 84.094C86.4578 82.9778 83.5839 82.2394 80.6123 81.877C79.34 81.7624 79.1117 83.5949 80.3772 83.7935C83.1807 84.1355 85.8934 84.8324 88.5144 85.8848C89.7043 86.3271 90.4105 84.6117 89.2358 84.094Z" fill="#E41B3F"/>
<path d="M89.2358 92.2141C86.4578 91.0989 83.5839 90.3604 80.6123 89.998C79.3392 89.8868 79.1126 91.7142 80.3772 91.9145C83.1807 92.2557 85.8934 92.9534 88.5144 94.0059C89.7043 94.4481 90.4105 92.7319 89.2358 92.2141Z" fill="#E41B3F"/>
<path d="M99.236 77.8352C99.3607 77.8343 99.4804 77.8114 99.5967 77.7647C102.218 76.7123 104.929 76.0146 107.734 75.6734C107.797 75.6666 107.86 75.6539 107.922 75.6352C107.983 75.6165 108.043 75.591 108.099 75.5605C108.156 75.5299 108.208 75.4943 108.257 75.4527C108.307 75.4111 108.352 75.3653 108.392 75.3152C108.432 75.2651 108.467 75.2117 108.497 75.1539C108.526 75.0971 108.549 75.0377 108.567 74.9757C108.584 74.9137 108.596 74.8509 108.6 74.7864C108.605 74.7219 108.605 74.6583 108.596 74.5946C108.589 74.5309 108.575 74.4681 108.555 74.407C108.534 74.3459 108.508 74.2873 108.476 74.2322C108.443 74.1762 108.407 74.1235 108.364 74.0752C108.322 74.0268 108.275 73.9835 108.224 73.9444C108.173 73.9054 108.118 73.8714 108.061 73.8434C108.003 73.8154 107.943 73.7934 107.88 73.7772C107.818 73.7611 107.755 73.7509 107.691 73.7475C107.626 73.7441 107.562 73.7467 107.499 73.756C104.527 74.1184 101.653 74.8577 98.8752 75.973C98.7708 76.0146 98.6775 76.0723 98.5934 76.147C98.5094 76.2217 98.4407 76.3083 98.3872 76.4067C98.3337 76.5052 98.2981 76.6104 98.2811 76.7208C98.2633 76.8319 98.2658 76.9423 98.287 77.0526C98.3083 77.163 98.3473 77.2657 98.405 77.3624C98.4627 77.4592 98.534 77.5432 98.6206 77.6145C98.7072 77.6858 98.8039 77.7401 98.9092 77.7783C99.0153 77.8157 99.1239 77.8352 99.236 77.8343V77.8352Z" fill="#E41B3F"/>
<path d="M99.236 85.9553C99.3607 85.9553 99.4804 85.9324 99.5967 85.8857C102.218 84.8332 104.929 84.1356 107.734 83.7944C107.797 83.7876 107.86 83.7748 107.922 83.7562C107.983 83.7375 108.043 83.712 108.099 83.6815C108.156 83.6509 108.208 83.6153 108.257 83.5737C108.307 83.5321 108.352 83.4863 108.392 83.4362C108.432 83.3861 108.467 83.3326 108.497 83.2749C108.526 83.218 108.549 83.1586 108.567 83.0967C108.584 83.0347 108.596 82.9719 108.6 82.9074C108.605 82.8437 108.605 82.7792 108.596 82.7156C108.589 82.6519 108.575 82.5891 108.555 82.528C108.534 82.4669 108.508 82.4083 108.476 82.3531C108.443 82.2971 108.407 82.2454 108.364 82.197C108.322 82.1486 108.275 82.1045 108.224 82.0654C108.173 82.0264 108.118 81.9924 108.061 81.9644C108.003 81.9364 107.943 81.9143 107.88 81.8982C107.818 81.8821 107.755 81.8719 107.691 81.8685C107.626 81.8651 107.562 81.8685 107.499 81.8778C104.527 82.2394 101.653 82.9778 98.8752 84.094C98.7708 84.1356 98.6775 84.1941 98.5934 84.268C98.5094 84.3427 98.4407 84.4292 98.3872 84.5277C98.3337 84.6261 98.2981 84.7314 98.2811 84.8417C98.2641 84.9529 98.2658 85.0633 98.287 85.1736C98.3083 85.2839 98.3481 85.3866 98.405 85.4834C98.4627 85.5802 98.5349 85.6633 98.6215 85.7346C98.708 85.8068 98.8039 85.8611 98.9092 85.8984C99.0153 85.9366 99.1239 85.9553 99.236 85.9553Z" fill="#E41B3F"/>
<path d="M99.236 94.0763C99.3607 94.0763 99.4804 94.0534 99.5967 94.0067C102.218 92.9542 104.929 92.2566 107.734 91.9154C107.797 91.9086 107.86 91.8958 107.922 91.8772C107.983 91.8585 108.043 91.833 108.099 91.8025C108.156 91.7719 108.208 91.7363 108.257 91.6947C108.307 91.6531 108.352 91.6073 108.392 91.5572C108.432 91.5071 108.467 91.4536 108.497 91.3959C108.526 91.339 108.549 91.2796 108.567 91.2177C108.584 91.1557 108.596 91.0929 108.601 91.0284C108.605 90.9639 108.605 90.9002 108.596 90.8366C108.588 90.7729 108.575 90.7101 108.555 90.649C108.534 90.5879 108.508 90.5293 108.476 90.4741C108.444 90.4181 108.407 90.3655 108.364 90.3171C108.322 90.2687 108.275 90.2255 108.224 90.1864C108.173 90.1474 108.118 90.1134 108.061 90.0854C108.003 90.0574 107.943 90.0353 107.88 90.0192C107.818 90.0031 107.755 89.9929 107.691 89.9895C107.626 89.9861 107.562 89.9887 107.499 89.998C104.527 90.3604 101.653 91.0997 98.8752 92.215C98.7708 92.2566 98.6775 92.3151 98.5934 92.3898C98.5094 92.4645 98.4407 92.5511 98.3863 92.6495C98.3329 92.748 98.2972 92.8524 98.2802 92.9636C98.2633 93.0748 98.265 93.1851 98.2862 93.2954C98.3083 93.4058 98.3473 93.5085 98.405 93.6052C98.4619 93.702 98.534 93.7852 98.6206 93.8573C98.7072 93.9286 98.8031 93.9829 98.9092 94.0203C99.0144 94.0585 99.1239 94.0772 99.236 94.0772V94.0763Z" fill="#E41B3F"/>
</svg>
