<svg width="363" height="140" viewBox="0 0 363 140" fill="none" xmlns="http://www.w3.org/2000/svg">
<path d="M75.824 86L68.292 77.292V86H65.1V66.54H68.292V75.416L75.852 66.54H79.856L71.4 76.284L79.996 86H75.824ZM90.6028 70.32C91.8161 70.32 92.8988 70.572 93.8508 71.076C94.8214 71.58 95.5774 72.3267 96.1188 73.316C96.6601 74.3053 96.9308 75.5 96.9308 76.9V86H93.7668V77.376C93.7668 75.9947 93.4214 74.94 92.7308 74.212C92.0401 73.4653 91.0974 73.092 89.9028 73.092C88.7081 73.092 87.7561 73.4653 87.0468 74.212C86.3561 74.94 86.0108 75.9947 86.0108 77.376V86H82.8188V70.572H86.0108V72.336C86.5334 71.7013 87.1961 71.2067 87.9988 70.852C88.8201 70.4973 89.6881 70.32 90.6028 70.32ZM107.694 86.252C106.238 86.252 104.922 85.9253 103.746 85.272C102.57 84.6 101.646 83.6667 100.974 82.472C100.302 81.2587 99.9663 79.8587 99.9663 78.272C99.9663 76.704 100.312 75.3133 101.002 74.1C101.693 72.8867 102.636 71.9533 103.83 71.3C105.025 70.6467 106.36 70.32 107.834 70.32C109.309 70.32 110.644 70.6467 111.838 71.3C113.033 71.9533 113.976 72.8867 114.666 74.1C115.357 75.3133 115.702 76.704 115.702 78.272C115.702 79.84 115.348 81.2307 114.638 82.444C113.929 83.6573 112.958 84.6 111.726 85.272C110.513 85.9253 109.169 86.252 107.694 86.252ZM107.694 83.48C108.516 83.48 109.281 83.284 109.99 82.892C110.718 82.5 111.306 81.912 111.754 81.128C112.202 80.344 112.426 79.392 112.426 78.272C112.426 77.152 112.212 76.2093 111.782 75.444C111.353 74.66 110.784 74.072 110.074 73.68C109.365 73.288 108.6 73.092 107.778 73.092C106.957 73.092 106.192 73.288 105.482 73.68C104.792 74.072 104.241 74.66 103.83 75.444C103.42 76.2093 103.214 77.152 103.214 78.272C103.214 79.9333 103.634 81.2213 104.474 82.136C105.333 83.032 106.406 83.48 107.694 83.48ZM139.578 70.572L134.79 86H131.43L128.322 74.604L125.214 86H121.854L117.038 70.572H120.286L123.506 82.976L126.782 70.572H130.114L133.25 82.92L136.442 70.572H139.578ZM145.155 65.28V86H141.963V65.28H145.155ZM163.486 77.908C163.486 78.4867 163.449 79.0093 163.374 79.476H151.586C151.679 80.708 152.137 81.6973 152.958 82.444C153.779 83.1907 154.787 83.564 155.982 83.564C157.699 83.564 158.913 82.8453 159.622 81.408H163.066C162.599 82.8267 161.75 83.9933 160.518 84.908C159.305 85.804 157.793 86.252 155.982 86.252C154.507 86.252 153.182 85.9253 152.006 85.272C150.849 84.6 149.934 83.6667 149.262 82.472C148.609 81.2587 148.282 79.8587 148.282 78.272C148.282 76.6853 148.599 75.2947 149.234 74.1C149.887 72.8867 150.793 71.9533 151.95 71.3C153.126 70.6467 154.47 70.32 155.982 70.32C157.438 70.32 158.735 70.6373 159.874 71.272C161.013 71.9067 161.899 72.8027 162.534 73.96C163.169 75.0987 163.486 76.4147 163.486 77.908ZM160.154 76.9C160.135 75.724 159.715 74.7813 158.894 74.072C158.073 73.3627 157.055 73.008 155.842 73.008C154.741 73.008 153.798 73.3627 153.014 74.072C152.23 74.7627 151.763 75.7053 151.614 76.9H160.154ZM165.563 78.216C165.563 76.6667 165.881 75.2947 166.515 74.1C167.169 72.9053 168.046 71.9813 169.147 71.328C170.267 70.656 171.509 70.32 172.871 70.32C173.879 70.32 174.869 70.544 175.839 70.992C176.829 71.4213 177.613 72 178.191 72.728V65.28H181.411V86H178.191V83.676C177.669 84.4227 176.941 85.0387 176.007 85.524C175.093 86.0093 174.038 86.252 172.843 86.252C171.499 86.252 170.267 85.916 169.147 85.244C168.046 84.5533 167.169 83.6013 166.515 82.388C165.881 81.156 165.563 79.7653 165.563 78.216ZM178.191 78.272C178.191 77.208 177.967 76.284 177.519 75.5C177.09 74.716 176.521 74.1187 175.811 73.708C175.102 73.2973 174.337 73.092 173.515 73.092C172.694 73.092 171.929 73.2973 171.219 73.708C170.51 74.1 169.931 74.688 169.483 75.472C169.054 76.2373 168.839 77.152 168.839 78.216C168.839 79.28 169.054 80.2133 169.483 81.016C169.931 81.8187 170.51 82.4347 171.219 82.864C171.947 83.2747 172.713 83.48 173.515 83.48C174.337 83.48 175.102 83.2747 175.811 82.864C176.521 82.4533 177.09 81.856 177.519 81.072C177.967 80.2693 178.191 79.336 178.191 78.272ZM191.82 70.32C193.015 70.32 194.069 70.5627 194.984 71.048C195.917 71.5147 196.645 72.1027 197.168 72.812V70.572H200.388V86.252C200.388 87.6707 200.089 88.9307 199.492 90.032C198.895 91.152 198.027 92.0293 196.888 92.664C195.768 93.2987 194.424 93.616 192.856 93.616C190.765 93.616 189.029 93.1213 187.648 92.132C186.267 91.1613 185.483 89.836 185.296 88.156H188.46C188.703 88.9587 189.216 89.6027 190 90.088C190.803 90.592 191.755 90.844 192.856 90.844C194.144 90.844 195.18 90.452 195.964 89.668C196.767 88.884 197.168 87.7453 197.168 86.252V83.676C196.627 84.404 195.889 85.02 194.956 85.524C194.041 86.0093 192.996 86.252 191.82 86.252C190.476 86.252 189.244 85.916 188.124 85.244C187.023 84.5533 186.145 83.6013 185.492 82.388C184.857 81.156 184.54 79.7653 184.54 78.216C184.54 76.6667 184.857 75.2947 185.492 74.1C186.145 72.9053 187.023 71.9813 188.124 71.328C189.244 70.656 190.476 70.32 191.82 70.32ZM197.168 78.272C197.168 77.208 196.944 76.284 196.496 75.5C196.067 74.716 195.497 74.1187 194.788 73.708C194.079 73.2973 193.313 73.092 192.492 73.092C191.671 73.092 190.905 73.2973 190.196 73.708C189.487 74.1 188.908 74.688 188.46 75.472C188.031 76.2373 187.816 77.152 187.816 78.216C187.816 79.28 188.031 80.2133 188.46 81.016C188.908 81.8187 189.487 82.4347 190.196 82.864C190.924 83.2747 191.689 83.48 192.492 83.48C193.313 83.48 194.079 83.2747 194.788 82.864C195.497 82.4533 196.067 81.856 196.496 81.072C196.944 80.2693 197.168 79.336 197.168 78.272ZM218.72 77.908C218.72 78.4867 218.683 79.0093 218.608 79.476H206.82C206.914 80.708 207.371 81.6973 208.192 82.444C209.014 83.1907 210.022 83.564 211.216 83.564C212.934 83.564 214.147 82.8453 214.856 81.408H218.3C217.834 82.8267 216.984 83.9933 215.752 84.908C214.539 85.804 213.027 86.252 211.216 86.252C209.742 86.252 208.416 85.9253 207.24 85.272C206.083 84.6 205.168 83.6667 204.496 82.472C203.843 81.2587 203.516 79.8587 203.516 78.272C203.516 76.6853 203.834 75.2947 204.468 74.1C205.122 72.8867 206.027 71.9533 207.184 71.3C208.36 70.6467 209.704 70.32 211.216 70.32C212.672 70.32 213.97 70.6373 215.108 71.272C216.247 71.9067 217.134 72.8027 217.768 73.96C218.403 75.0987 218.72 76.4147 218.72 77.908ZM215.388 76.9C215.37 75.724 214.95 74.7813 214.128 74.072C213.307 73.3627 212.29 73.008 211.076 73.008C209.975 73.008 209.032 73.3627 208.248 74.072C207.464 74.7627 206.998 75.7053 206.848 76.9H215.388ZM237.85 86H234.658L225.054 71.468V86H221.862V66.512H225.054L234.658 81.016V66.512H237.85V86ZM248.733 86.252C247.277 86.252 245.961 85.9253 244.785 85.272C243.609 84.6 242.685 83.6667 242.013 82.472C241.341 81.2587 241.005 79.8587 241.005 78.272C241.005 76.704 241.351 75.3133 242.041 74.1C242.732 72.8867 243.675 71.9533 244.869 71.3C246.064 70.6467 247.399 70.32 248.873 70.32C250.348 70.32 251.683 70.6467 252.877 71.3C254.072 71.9533 255.015 72.8867 255.705 74.1C256.396 75.3133 256.741 76.704 256.741 78.272C256.741 79.84 256.387 81.2307 255.677 82.444C254.968 83.6573 253.997 84.6 252.765 85.272C251.552 85.9253 250.208 86.252 248.733 86.252ZM248.733 83.48C249.555 83.48 250.32 83.284 251.029 82.892C251.757 82.5 252.345 81.912 252.793 81.128C253.241 80.344 253.465 79.392 253.465 78.272C253.465 77.152 253.251 76.2093 252.821 75.444C252.392 74.66 251.823 74.072 251.113 73.68C250.404 73.288 249.639 73.092 248.817 73.092C247.996 73.092 247.231 73.288 246.521 73.68C245.831 74.072 245.28 74.66 244.869 75.444C244.459 76.2093 244.253 77.152 244.253 78.272C244.253 79.9333 244.673 81.2213 245.513 82.136C246.372 83.032 247.445 83.48 248.733 83.48ZM266.589 86.252C265.133 86.252 263.817 85.9253 262.641 85.272C261.465 84.6 260.541 83.6667 259.869 82.472C259.197 81.2587 258.861 79.8587 258.861 78.272C258.861 76.704 259.206 75.3133 259.897 74.1C260.588 72.8867 261.53 71.9533 262.725 71.3C263.92 70.6467 265.254 70.32 266.729 70.32C268.204 70.32 269.538 70.6467 270.733 71.3C271.928 71.9533 272.87 72.8867 273.561 74.1C274.252 75.3133 274.597 76.704 274.597 78.272C274.597 79.84 274.242 81.2307 273.533 82.444C272.824 83.6573 271.853 84.6 270.621 85.272C269.408 85.9253 268.064 86.252 266.589 86.252ZM266.589 83.48C267.41 83.48 268.176 83.284 268.885 82.892C269.613 82.5 270.201 81.912 270.649 81.128C271.097 80.344 271.321 79.392 271.321 78.272C271.321 77.152 271.106 76.2093 270.677 75.444C270.248 74.66 269.678 74.072 268.969 73.68C268.26 73.288 267.494 73.092 266.673 73.092C265.852 73.092 265.086 73.288 264.377 73.68C263.686 74.072 263.136 74.66 262.725 75.444C262.314 76.2093 262.109 77.152 262.109 78.272C262.109 79.9333 262.529 81.2213 263.369 82.136C264.228 83.032 265.301 83.48 266.589 83.48ZM283.856 78.3L290.968 86H286.656L280.944 79.364V86H277.752V65.28H280.944V77.32L286.544 70.572H290.968L283.856 78.3Z" fill="white"/>
<mask id="mask0_21_155" style="mask-type:luminance" maskUnits="userSpaceOnUse" x="0" y="0" width="363" height="140">
<path d="M0 0H362.188V140H0V0Z" fill="white"/>
</mask>
<g mask="url(#mask0_21_155)">
<path d="M197.039 5.0851C180.323 6.31254 161.933 8.41431 141.866 11.3928C141.814 11.4 141.763 11.4096 141.71 11.4193C101.724 20.0113 70.4348 28.8052 47.8437 37.8032C68.8158 25.9612 96.0524 17.3162 129.551 11.866L129.563 11.8636C153.074 7.91229 175.564 5.65198 197.034 5.0851H197.039ZM6.54793 100.15C10.235 104.988 15.6516 109.497 22.7977 113.676C29.9197 117.844 38.8072 121.673 49.4602 125.165C42.7586 124.202 36.8255 123.008 31.6612 121.584H31.6588C26.9316 119.821 22.8385 117.832 19.3772 115.622C12.7236 111.377 8.44794 106.218 6.54553 100.15H6.54793ZM229.776 8.70736C255.651 8.70736 275.868 11.6066 290.43 17.4003C290.727 17.5204 291.037 17.5757 291.34 17.5757C292.322 17.5757 293.25 16.9872 293.634 16.0191C293.668 15.9351 293.696 15.8486 293.72 15.7645H293.725C293.987 15.8342 294.249 15.9062 294.513 15.9783H294.508C339.799 30.9334 360.509 51.0047 356.644 76.1924H356.639C349.094 99.3744 320.587 115.932 271.124 125.864H271.12C232.034 131.735 195.742 134.672 162.248 134.672C147.266 134.672 132.844 134.084 118.982 132.909H118.98C144.545 132.316 174.349 130.44 208.395 127.279C209.753 127.154 210.752 125.951 210.625 124.593C210.507 123.315 209.431 122.355 208.172 122.355C208.095 122.355 208.018 122.357 207.939 122.364C166.048 126.253 130.661 128.196 101.784 128.196C94.0179 128.196 86.7229 128.057 79.8964 127.776H79.894C76.2044 127.103 72.563 126.383 68.9671 125.614H68.9647C50.3153 120.94 35.7566 115.543 25.291 109.417C13.6411 102.6 7.2205 94.8514 6.02669 86.1705C7.29977 79.4976 10.5401 72.073 15.7477 63.8916H15.7453C18.4908 60.572 21.5102 57.3917 24.8034 54.3508H24.801C45.1414 41.4759 84.429 28.7787 142.664 16.2642H142.661C176.617 11.2271 205.655 8.70736 229.776 8.70736ZM207.725 0.00720215C182.785 0.00720215 156.459 2.33717 128.744 6.99711C80.0429 14.9214 44.1709 29.5978 21.1331 51.0264C14.0399 55.631 9.12771 60.2862 6.40141 64.9942C1.93123 72.635 0.0672514 79.7811 0.809479 86.4347C-1.60216 100.354 3.70152 111.471 16.7205 119.782C20.4989 122.196 24.9379 124.351 30.035 126.246C30.0998 126.27 30.1671 126.292 30.2368 126.311C42.4199 129.683 58.7465 131.802 79.219 132.667H79.2166C104.712 137.293 132.388 139.606 162.248 139.606C196.018 139.606 232.577 136.647 271.929 130.733C271.97 130.728 272.008 130.721 272.049 130.711C323.587 120.371 353.375 102.629 361.407 77.4847C361.446 77.3646 361.474 77.2421 361.494 77.1172C365.909 49.0807 344.067 27.1309 295.974 11.2655C295.935 11.2535 295.894 11.2415 295.856 11.2295C268.706 3.74957 239.329 0.00720215 207.725 0.00720215Z" fill="#CD1212"/>
</g>
</svg>
