<svg width="111" height="46" viewBox="0 0 111 46" fill="none" xmlns="http://www.w3.org/2000/svg">
<path d="M36.6429 37L29.7001 16.0943H28.5429V37H21.2143V10.3857H28.5429L35.4858 31.2914H36.6429V10.3857H43.9715V37H36.6429ZM55.6782 37.3857C50.5868 37.3857 45.9196 33.9529 45.9196 27.3571C45.9196 20.7614 50.5868 17.3286 55.6782 17.3286C60.7696 17.3286 65.4368 20.7614 65.4368 27.3571C65.4368 33.9529 60.7696 37.3857 55.6782 37.3857ZM55.6782 24.5414C53.7111 24.5414 52.9396 26.0843 52.9396 27.3571C52.9396 28.63 53.7111 30.1729 55.6782 30.1729C57.6454 30.1729 58.4168 28.63 58.4168 27.3571C58.4168 26.0843 57.6454 24.5414 55.6782 24.5414ZM76.546 37.3857C71.4545 37.3857 66.7874 33.9529 66.7874 27.3571C66.7874 20.7614 71.4545 17.3286 76.546 17.3286C81.6374 17.3286 86.3045 20.7614 86.3045 27.3571C86.3045 33.9529 81.6374 37.3857 76.546 37.3857ZM76.546 24.5414C74.5788 24.5414 73.8074 26.0843 73.8074 27.3571C73.8074 28.63 74.5788 30.1729 76.546 30.1729C78.5131 30.1729 79.2845 28.63 79.2845 27.3571C79.2845 26.0843 78.5131 24.5414 76.546 24.5414ZM108.666 37H100.72L93.97 21.1857H92.8129L96.2071 31.0214V37H88.3V10.3857H95.6286V23.1914L96.0914 24.2714L100.141 17.7143H108.203L103.574 25.12L108.666 37Z" fill="white"/>
<path d="M27.5014 37H19.0929L6.90429 15.0529H5.74714L9.25714 23.23V37H1.92857V10.3857H9.25714V17.7914L10.7229 20.4143L17.9743 10.3857H27.1543L18.9771 21.6871L27.5014 37Z" fill="#E41B3F"/>
<rect x="61.0714" y="22.5" width="9.64286" height="6.42857" fill="white"/>
<rect x="39.8348" y="16.0714" width="9.64286" height="3.21429" transform="rotate(23.1518 39.8348 16.0714)" fill="white"/>
<rect x="83.5714" y="20.6137" width="9.64286" height="3.21429" transform="rotate(-28.1022 83.5714 20.6137)" fill="white"/>
<circle cx="55.8214" cy="27.8214" r="4.82143" fill="white"/>
<circle cx="75.5357" cy="27.3214" r="4.82143" fill="white"/>
</svg>
