<svg width="158" height="158" viewBox="0 0 158 158" fill="none" xmlns="http://www.w3.org/2000/svg">
<path d="M108.474 95.8416H49.5259C49.388 95.8416 49.2508 95.8553 49.1152 95.882C48.9795 95.9094 48.8477 95.949 48.7205 96.0024C48.5925 96.0549 48.4713 96.1197 48.3563 96.1967C48.2412 96.2736 48.1353 96.3605 48.037 96.4588C47.9395 96.5563 47.8518 96.6622 47.7756 96.7773C47.6987 96.8923 47.6339 97.0135 47.5806 97.1415C47.528 97.2695 47.4876 97.4006 47.461 97.5362C47.4343 97.6718 47.4206 97.809 47.4206 97.9469C47.4206 98.0856 47.4343 98.2219 47.461 98.3576C47.4876 98.4932 47.528 98.625 47.5806 98.753C47.6339 98.8803 47.6987 99.0014 47.7756 99.1165C47.8518 99.2315 47.9395 99.3382 48.037 99.4357C48.1353 99.5333 48.2412 99.6209 48.3563 99.6979C48.4713 99.7741 48.5925 99.8396 48.7205 99.8922C48.8477 99.9447 48.9795 99.9851 49.1152 100.012C49.2508 100.039 49.388 100.052 49.5259 100.052H108.474C108.612 100.052 108.749 100.039 108.885 100.012C109.02 99.9851 109.152 99.9447 109.28 99.8922C109.408 99.8396 109.529 99.7741 109.644 99.6979C109.759 99.6209 109.865 99.5333 109.963 99.4357C110.061 99.3382 110.148 99.2315 110.224 99.1165C110.301 99.0014 110.366 98.8803 110.419 98.753C110.472 98.625 110.512 98.4932 110.539 98.3576C110.566 98.2219 110.579 98.0856 110.579 97.9469C110.579 97.809 110.566 97.6718 110.539 97.5362C110.512 97.4006 110.472 97.2695 110.419 97.1415C110.366 97.0135 110.301 96.8923 110.224 96.7773C110.148 96.6622 110.061 96.5563 109.963 96.4588C109.865 96.3605 109.759 96.2736 109.644 96.1967C109.529 96.1197 109.408 96.0549 109.28 96.0024C109.152 95.949 109.02 95.9094 108.885 95.882C108.749 95.8553 108.612 95.8416 108.474 95.8416Z" fill="#E41B3F"/>
<mask id="mask0_21_277" style="mask-type:luminance" maskUnits="userSpaceOnUse" x="47" y="57" width="35" height="6">
<path d="M47.4 57.9463H81.1457V62.2247H47.4V57.9463Z" fill="white"/>
</mask>
<g mask="url(#mask0_21_277)">
<path d="M49.5259 62.1569H79C79.1379 62.1569 79.2751 62.1439 79.4107 62.1165C79.5463 62.0898 79.6781 62.0494 79.8054 61.9969C79.9334 61.9443 80.0545 61.8788 80.1696 61.8026C80.2847 61.7256 80.3906 61.638 80.4889 61.5405C80.5864 61.4429 80.674 61.3362 80.7502 61.2212C80.8272 61.1061 80.8919 60.985 80.9453 60.8577C80.9979 60.7297 81.0382 60.5979 81.0649 60.4623C81.0916 60.3267 81.1053 60.1903 81.1053 60.0516C81.1053 59.9137 81.0916 59.7765 81.0649 59.6409C81.0382 59.5053 80.9979 59.3742 80.9453 59.2462C80.8919 59.1182 80.8272 58.997 80.7502 58.882C80.674 58.7669 80.5864 58.661 80.4889 58.5635C80.3906 58.4652 80.2847 58.3783 80.1696 58.3014C80.0545 58.2244 79.9334 58.1596 79.8054 58.1071C79.6781 58.0537 79.5463 58.0141 79.4107 57.9867C79.2751 57.96 79.1379 57.9463 79 57.9463H49.5259C49.388 57.9463 49.2508 57.96 49.1152 57.9867C48.9795 58.0141 48.8477 58.0537 48.7205 58.1071C48.5925 58.1596 48.4713 58.2244 48.3563 58.3014C48.2412 58.3783 48.1353 58.4652 48.037 58.5635C47.9395 58.661 47.8518 58.7669 47.7756 58.882C47.6987 58.997 47.6339 59.1182 47.5806 59.2462C47.528 59.3742 47.4876 59.5053 47.461 59.6409C47.4343 59.7765 47.4206 59.9137 47.4206 60.0516C47.4206 60.1903 47.4343 60.3267 47.461 60.4623C47.4876 60.5979 47.528 60.7297 47.5806 60.8577C47.6339 60.985 47.6987 61.1061 47.7756 61.2212C47.8518 61.3362 47.9395 61.4429 48.037 61.5405C48.1353 61.638 48.2412 61.7256 48.3563 61.8026C48.4713 61.8788 48.5925 61.9443 48.7205 61.9969C48.8477 62.0494 48.9795 62.0898 49.1152 62.1165C49.2508 62.1439 49.388 62.1569 49.5259 62.1569Z" fill="#E41B3F"/>
</g>
<path d="M49.5259 87.4204H79C79.1379 87.4204 79.2751 87.4075 79.4107 87.38C79.5463 87.3534 79.6781 87.313 79.8054 87.2604C79.9334 87.2078 80.0546 87.1423 80.1696 87.0661C80.2847 86.9892 80.3906 86.9015 80.4889 86.804C80.5864 86.7065 80.674 86.5998 80.7502 86.4847C80.8272 86.3697 80.8919 86.2485 80.9453 86.1213C80.9979 85.9933 81.0382 85.8615 81.0649 85.7258C81.0916 85.5902 81.1053 85.4538 81.1053 85.3151C81.1053 85.1772 81.0916 85.0401 81.0649 84.9044C81.0382 84.7688 80.9979 84.6378 80.9453 84.5097C80.8919 84.3817 80.8272 84.2606 80.7502 84.1455C80.674 84.0305 80.5864 83.9246 80.4889 83.827C80.3906 83.7287 80.2847 83.6419 80.1696 83.5649C80.0546 83.488 79.9334 83.4232 79.8054 83.3706C79.6781 83.3173 79.5463 83.2777 79.4107 83.2502C79.2751 83.2236 79.1379 83.2098 79 83.2098H49.5259C49.388 83.2098 49.2508 83.2236 49.1152 83.2502C48.9795 83.2777 48.8477 83.3173 48.7205 83.3706C48.5925 83.4232 48.4713 83.488 48.3563 83.5649C48.2412 83.6419 48.1353 83.7287 48.037 83.827C47.9395 83.9246 47.8518 84.0305 47.7756 84.1455C47.6987 84.2606 47.6339 84.3817 47.5806 84.5097C47.528 84.6378 47.4876 84.7688 47.461 84.9044C47.4343 85.0401 47.4206 85.1772 47.4206 85.3151C47.4206 85.4538 47.4343 85.5902 47.461 85.7258C47.4876 85.8615 47.528 85.9933 47.5806 86.1213C47.6339 86.2485 47.6987 86.3697 47.7756 86.4847C47.8518 86.5998 47.9395 86.7065 48.037 86.804C48.1353 86.9015 48.2412 86.9892 48.3563 87.0661C48.4713 87.1423 48.5925 87.2078 48.7205 87.2604C48.8477 87.313 48.9795 87.3534 49.1152 87.38C49.2508 87.4075 49.388 87.4204 49.5259 87.4204Z" fill="#E41B3F"/>
<path d="M49.5259 74.7887H79C79.1379 74.7887 79.2751 74.7757 79.4107 74.7483C79.5463 74.7216 79.6781 74.6812 79.8054 74.6286C79.9334 74.5761 80.0546 74.5105 80.1696 74.4343C80.2847 74.3574 80.3906 74.2698 80.4889 74.1722C80.5864 74.0747 80.674 73.968 80.7502 73.853C80.8272 73.7379 80.8919 73.6168 80.9453 73.4895C80.9979 73.3615 81.0382 73.2297 81.0649 73.0941C81.0916 72.9584 81.1053 72.822 81.1053 72.6834C81.1053 72.5454 81.0916 72.4083 81.0649 72.2727C81.0382 72.137 80.9979 72.006 80.9453 71.878C80.8919 71.75 80.8272 71.6288 80.7502 71.5138C80.674 71.3987 80.5864 71.2928 80.4889 71.1953C80.3906 71.097 80.2847 71.0101 80.1696 70.9331C80.0546 70.8562 79.9334 70.7914 79.8054 70.7388C79.6781 70.6855 79.5463 70.6459 79.4107 70.6184C79.2751 70.5918 79.1379 70.5781 79 70.5781H49.5259C49.388 70.5781 49.2508 70.5918 49.1152 70.6184C48.9795 70.6459 48.8477 70.6855 48.7205 70.7388C48.5925 70.7914 48.4713 70.8562 48.3563 70.9331C48.2412 71.0101 48.1353 71.097 48.037 71.1953C47.9395 71.2928 47.8518 71.3987 47.7756 71.5138C47.6987 71.6288 47.6339 71.75 47.5806 71.878C47.528 72.006 47.4876 72.137 47.461 72.2727C47.4343 72.4083 47.4206 72.5454 47.4206 72.6834C47.4206 72.822 47.4343 72.9584 47.461 73.0941C47.4876 73.2297 47.528 73.3615 47.5806 73.4895C47.6339 73.6168 47.6987 73.7379 47.7756 73.853C47.8518 73.968 47.9395 74.0747 48.037 74.1722C48.1353 74.2698 48.2412 74.3574 48.3563 74.4343C48.4713 74.5105 48.5925 74.5761 48.7205 74.6286C48.8477 74.6812 48.9795 74.7216 49.1152 74.7483C49.2508 74.7757 49.388 74.7887 49.5259 74.7887Z" fill="#E41B3F"/>
<mask id="mask1_21_277" style="mask-type:luminance" maskUnits="userSpaceOnUse" x="85" y="57" width="26" height="33">
<path d="M85.242 57.9463H110.6V89.5333H85.242V57.9463Z" fill="white"/>
</mask>
<g mask="url(#mask1_21_277)">
<path d="M86.4527 89.2941C86.7568 89.4503 87.0798 89.5272 87.4212 89.5257C87.8608 89.5249 88.2609 89.3985 88.6213 89.147L109.674 74.4099C109.814 74.3132 109.939 74.2012 110.052 74.0739C110.164 73.9467 110.26 73.808 110.339 73.6579C110.417 73.5078 110.477 73.3501 110.518 73.1855C110.559 73.0201 110.579 72.8533 110.579 72.6833C110.573 72.5081 110.544 72.3359 110.493 72.1675C110.443 71.9999 110.373 71.8399 110.283 71.689C110.193 71.5381 110.086 71.401 109.961 71.2775C109.837 71.1533 109.699 71.0467 109.548 70.9575L88.4948 58.3257C88.4171 58.2793 88.3363 58.2381 88.2525 58.2023C88.1694 58.1657 88.0841 58.136 87.9965 58.1109C87.9096 58.0857 87.8205 58.0667 87.7313 58.0529C87.6414 58.04 87.5507 58.0324 87.46 58.0309C87.3694 58.0286 87.2787 58.0331 87.1888 58.043C87.0981 58.0529 87.009 58.0682 86.9206 58.0903C86.833 58.1116 86.7461 58.1383 86.6615 58.1711C86.5769 58.2038 86.4946 58.2419 86.4146 58.2853C86.3354 58.3288 86.2584 58.3768 86.1845 58.4301C86.1114 58.4835 86.0413 58.5414 85.9757 58.6031C85.9095 58.6656 85.8477 58.7319 85.7898 58.802C85.7327 58.8728 85.6801 58.946 85.6321 59.0229C85.5841 59.1006 85.5414 59.1799 85.5033 59.2629C85.466 59.3452 85.434 59.4306 85.4073 59.5167C85.3807 59.6035 85.3593 59.6919 85.3441 59.7811C85.3288 59.871 85.3197 59.9609 85.3159 60.0516V87.4204C85.3151 87.6139 85.341 87.8037 85.3928 87.9896C85.4447 88.1763 85.5209 88.3515 85.6214 88.5169C85.7213 88.6822 85.8424 88.8308 85.9834 88.9626C86.1243 89.0952 86.2813 89.2057 86.4527 89.2941ZM89.5265 63.7783L104.6 72.8098L89.5265 83.3363V63.7783Z" fill="#E41B3F"/>
</g>
</svg>
