<svg width="157" height="157" viewBox="0 0 157 157" fill="none" xmlns="http://www.w3.org/2000/svg">
<path d="M86.0903 46.009C86.1244 45.5501 86.3947 44.1305 85.4944 41.9901C84.9357 40.659 83.5849 40.6128 82.4507 40.8097C81.3166 41.0066 77.069 48.0858 79.8167 50.4375C82.562 52.7876 85.8957 48.6877 86.0903 46.009Z" fill="#161515"/>
<path d="M58.7016 83.4048C60.7307 80.0953 62.7538 76.7821 64.7867 73.4757C65.4697 72.3642 65.6332 71.9273 65.6332 71.9273L69.032 73.1266L68.0462 74.5599C66.0413 77.4317 64.0387 80.3028 62.0338 83.1731L60.5596 85.3945L58.3306 84.6858L58.7016 83.4048Z" fill="#161515"/>
<path d="M81.3128 102.934C83.9983 98.9654 86.6847 94.9972 89.3687 91.0268L90.113 90.069L92.2405 91.3365L91.7204 92.0921C89.4429 95.665 87.1654 99.2387 84.888 102.812L82.4803 106.768L79.3154 105.113L81.3128 102.934Z" fill="#161515"/>
<path d="M87.1193 88.0346C79.9257 88.3905 72.7829 89.7662 65.9724 92.105L63.6821 93.6291L64.0516 89.1575L66.0118 88.6154C72.5996 85.7549 79.5971 83.8431 86.7233 82.9573H88.3049V88.2921L87.1193 88.0346Z" fill="#161515"/>
<path d="M59.062 83.6167C61.0904 80.3065 63.118 76.9971 65.1464 73.6876C65.4288 73.2273 64.7065 72.8078 64.4248 73.2659C62.3957 76.5754 60.3688 79.8856 58.3397 83.195C58.0596 83.6538 58.7811 84.0748 59.062 83.6167Z" fill="#E41B3F"/>
<path d="M67.6881 74.3502C65.6832 77.222 63.6798 80.093 61.6757 82.9634C61.5454 83.1489 61.6423 83.4267 61.8256 83.535C62.0338 83.6569 62.2677 83.5698 62.3972 83.3843C64.4021 80.5125 66.4047 77.6414 68.4096 74.7711C68.5399 74.5856 68.4429 74.307 68.2597 74.1995C68.05 74.0768 67.816 74.1647 67.6881 74.3502Z" fill="#E41B3F"/>
<path d="M89.0083 90.8171C86.9126 93.9146 84.8153 97.0128 82.7195 100.111C82.1312 100.982 81.5407 101.852 80.9524 102.723C80.6503 103.168 81.3741 103.588 81.6747 103.144C83.7704 100.046 85.8677 96.9477 87.9635 93.8502C88.5518 92.9795 89.1423 92.1088 89.7306 91.2381C90.0312 90.7929 89.3097 90.3734 89.0083 90.8171Z" fill="#E41B3F"/>
<path d="M91.3607 91.8824C89.5898 94.6611 87.8204 97.4382 86.0494 100.217C85.5429 101.013 85.0364 101.808 84.5298 102.604C84.2399 103.058 84.9622 103.478 85.2514 103.025C87.0223 100.246 88.7918 97.4693 90.562 94.6906C91.0692 93.8941 91.5758 93.0998 92.0823 92.3033C92.37 91.8491 91.6484 91.4296 91.3607 91.8824Z" fill="#E41B3F"/>
<path d="M84.8728 41.7917C85.5823 43.0796 85.8495 44.5515 85.6708 46.009C85.9442 45.9719 86.219 45.9348 86.4916 45.8977C86.4787 45.8659 86.4674 45.8326 86.4545 45.8008C86.3742 45.5895 86.1721 45.4441 85.9404 45.5093C85.7382 45.5653 85.5686 45.8121 85.6489 46.0234C85.6618 46.0552 85.6731 46.0885 85.686 46.1203C85.8586 46.5753 86.4492 46.4784 86.5067 46.009C86.7013 44.4122 86.3674 42.7768 85.5929 41.37C85.3354 40.8983 84.6146 41.32 84.8728 41.7917Z" fill="#E41B3F"/>
<path d="M66.0837 92.5078C71.3594 90.6998 76.8313 89.4581 82.3743 88.8365C83.9521 88.6601 85.5353 88.5321 87.1208 88.4518C87.6553 88.4261 87.6591 87.5887 87.1208 87.6167C81.4763 87.9006 75.8606 88.7971 70.413 90.297C68.8813 90.7187 67.3648 91.1881 65.8634 91.7022C65.3561 91.8764 65.5734 92.682 66.0837 92.5078Z" fill="#E41B3F"/>
<path d="M66.223 88.9773C71.3223 86.7664 76.6738 85.131 82.135 84.0975C83.6569 83.8098 85.1886 83.5683 86.7255 83.3752C86.9497 83.3472 87.1427 83.2026 87.1427 82.9573C87.1427 82.7536 86.9497 82.5121 86.7255 82.5401C81.1046 83.2412 75.5691 84.5578 70.2442 86.4863C68.7458 87.0284 67.2648 87.6205 65.8036 88.2549C65.5961 88.3443 65.5492 88.6487 65.6536 88.8266C65.7755 89.0401 66.0156 89.0681 66.223 88.9773Z" fill="#E41B3F"/>
<path d="M84.1467 47.0281C83.4585 47.1 82.6544 47.128 82.2016 46.6049C81.8715 46.2225 81.8549 45.6395 82.0532 45.1739C82.2516 44.7075 82.6287 44.344 83.0315 44.0374C83.4736 43.7035 83.9612 43.4135 84.3065 42.9812C84.6517 42.5489 84.8176 41.9083 84.5238 41.4404C84.1952 40.9188 83.4827 40.8355 82.8664 40.8188C78.8861 40.7128 74.8718 41.099 71.0437 42.187C69.8444 42.5284 69.035 43.7959 69.035 43.7959V56.933H70.2343C73.9935 56.799 77.7005 55.9396 81.2196 54.6184C82.2849 54.2171 86.3508 51.9078 86.3508 51.9078L84.1467 47.0281Z" fill="#161515"/>
<path d="M73.8875 104.967C71.8925 106.617 70.7356 109.233 70.8567 111.819C70.9566 113.961 71.9349 116.071 73.5854 117.443C75.024 118.638 76.9062 119.236 78.7771 119.294C81.5263 119.377 84.3231 118.272 86.1554 116.223C87.9892 114.172 88.7713 111.186 88.0233 108.539C86.2909 102.407 78.4281 101.212 73.8875 104.967Z" fill="#161515"/>
<path d="M75.4487 106.641C74.0011 107.838 73.1622 109.736 73.2508 111.61C73.3235 113.164 74.0321 114.696 75.2299 115.691C76.2733 116.558 77.6391 116.991 78.9959 117.032C80.9895 117.092 83.0186 116.292 84.3474 114.805C85.6769 113.318 86.2448 111.15 85.7026 109.231C84.4458 104.785 78.7438 103.918 75.4487 106.641Z" fill="#161515"/>
<path d="M89.7124 78.3463C87.7166 79.9968 86.5605 82.612 86.6809 85.1976C86.7808 87.3403 87.759 89.4504 89.4096 90.8224C90.8482 92.0179 92.7304 92.6153 94.6013 92.6728C97.3505 92.7569 100.148 91.6522 101.98 89.6026C103.812 87.5538 104.595 84.5646 103.847 81.9177C102.116 75.7864 94.2545 74.5916 89.7124 78.3463Z" fill="#161515"/>
<path d="M91.1858 79.9241C89.7064 81.1477 88.8493 83.0852 88.9402 85.0008C89.0144 86.5885 89.7397 88.1527 90.9617 89.168C92.0285 90.0554 93.4224 90.4976 94.8095 90.54C96.8477 90.6013 98.9192 89.7843 100.278 88.2648C101.637 86.7444 102.216 84.5313 101.662 82.5696C100.378 78.0275 94.5513 77.1417 91.1858 79.9241Z" fill="#161515"/>
<path d="M53.3948 85.3112C51.6625 86.7445 50.657 89.0144 50.7623 91.2601C50.8501 93.1203 51.6981 94.9526 53.1314 96.1444C54.3806 97.1816 56.0138 97.7018 57.6378 97.7502C60.0251 97.8222 62.4532 96.8644 64.044 95.0844C65.6347 93.3043 66.3139 90.7111 65.6665 88.4132C64.1644 83.089 57.3373 82.0518 53.3948 85.3112Z" fill="#161515"/>
<path d="M54.9447 86.9723C53.7568 87.9544 53.0662 89.5133 53.1382 91.0541C53.198 92.3314 53.781 93.5882 54.7645 94.4052C55.6223 95.1176 56.7437 95.4742 57.8574 95.5076C59.4943 95.5575 61.1616 94.9003 62.2526 93.6776C63.3444 92.454 63.81 90.6755 63.3648 89.0976C62.3344 85.4467 57.6507 84.7358 54.9447 86.9723Z" fill="#161515"/>
<path d="M62.5161 67.1407C62.3624 69.6354 63.7525 72.1113 65.8535 73.4665C68.2468 75.0111 71.5358 75.0891 73.9413 73.5665C76.3475 72.0446 77.6891 68.9616 77.0599 66.1844C76.405 63.302 72.9244 60.2 69.8429 60.3946C66.329 60.6172 62.7387 63.5427 62.5161 67.1407Z" fill="#161515"/>
<path d="M65.0684 67.274C64.9684 68.9018 65.8762 70.5168 67.2459 71.4026C68.8071 72.4104 70.9529 72.4603 72.5232 71.467C74.0935 70.4744 74.9695 68.4619 74.5576 66.6501C74.1306 64.7678 71.8584 62.7448 69.8482 62.8727C67.5563 63.0173 65.2138 64.9276 65.0684 67.274Z" fill="#161515"/>
<path d="M101.95 44.8505V45.0307C97.8479 48.4742 89.8457 53.1162 85.3317 55.9994C84.5594 56.4908 83.4971 56.9647 82.8028 56.3666C82.3372 55.9661 82.2963 55.2718 82.2887 54.6592C82.2872 54.4881 82.2849 54.3079 82.2834 54.1209C82.2615 51.9653 82.2387 48.799 82.2206 46.6215C82.6733 47.128 83.4676 47.0985 84.1467 47.0281C89.2347 46.4935 96.8606 45.3851 101.95 44.8505Z" fill="#161515"/>
<path d="M73.5922 104.672C72.0446 105.964 70.9695 107.818 70.5925 109.795C70.2063 111.815 70.5463 113.932 71.5881 115.711C72.661 117.541 74.4243 118.811 76.4588 119.368C78.4447 119.912 80.6109 119.808 82.5454 119.104C84.4549 118.41 86.1441 117.164 87.2639 115.457C88.3549 113.793 88.8932 111.724 88.6744 109.739C88.4904 108.085 87.8135 106.507 86.7104 105.256C85.7413 104.158 84.4587 103.367 83.0739 102.903C80.2619 101.961 76.9986 102.383 74.5114 103.994C74.1904 104.203 73.886 104.43 73.5922 104.672C73.4181 104.815 73.4438 105.113 73.5922 105.262C73.7649 105.434 74.0079 105.405 74.1828 105.262C76.2672 103.549 79.1632 102.893 81.7708 103.42C83.0557 103.681 84.2936 104.213 85.2998 105.051C86.347 105.921 87.1192 107.068 87.5364 108.366C88.0975 110.109 87.9619 112.009 87.2601 113.693C86.5453 115.41 85.2385 116.806 83.6182 117.706C80.3345 119.529 75.6865 119.317 73.0971 116.383C71.8697 114.994 71.2292 113.118 71.2686 111.273C71.3072 109.443 72.0091 107.614 73.2023 106.226C73.5014 105.877 73.83 105.556 74.1843 105.26C74.3569 105.116 74.3335 104.818 74.1843 104.67C74.0102 104.501 73.7649 104.527 73.5922 104.672Z" fill="#E41B3F"/>
<path d="M75.1535 106.346C72.826 108.295 72.137 111.774 73.6445 114.426C75.2224 117.205 78.7953 118.05 81.6913 117.032C83.1132 116.533 84.3739 115.62 85.2166 114.361C86.0328 113.144 86.4454 111.613 86.2947 110.148C86.1683 108.915 85.6769 107.746 84.8637 106.806C84.1528 105.986 83.2041 105.396 82.1797 105.047C80.1097 104.34 77.6914 104.645 75.853 105.83C75.61 105.988 75.3783 106.162 75.1535 106.346C74.9793 106.489 75.0051 106.788 75.1535 106.937C75.3261 107.109 75.5691 107.08 75.744 106.937C77.225 105.722 79.2859 105.26 81.1273 105.627C83.0224 106.008 84.6389 107.259 85.2408 109.144C85.636 110.382 85.5414 111.728 85.0455 112.925C84.5389 114.142 83.6122 115.133 82.4651 115.774C80.1248 117.083 76.8002 116.936 74.9528 114.837C73.1728 112.813 73.3068 109.655 75.027 107.644C75.2466 107.388 75.4874 107.152 75.7455 106.937C75.9182 106.792 75.8962 106.494 75.7455 106.346C75.5729 106.176 75.3284 106.201 75.1535 106.346Z" fill="#E41B3F"/>
<path d="M89.4172 78.051C87.8688 79.3434 86.7944 81.1977 86.4174 83.1746C86.0312 85.1938 86.3712 87.3123 87.4123 89.0908C88.4851 90.9208 90.2485 92.1906 92.2829 92.7471C94.2689 93.2914 96.4358 93.1869 98.3696 92.4836C100.28 91.7893 101.969 90.5438 103.088 88.8364C104.18 87.173 104.718 85.103 104.499 83.1185C104.315 81.4649 103.638 79.8871 102.535 78.6363C101.566 77.5369 100.284 76.7442 98.8988 76.2823C96.0868 75.3412 92.8235 75.7629 90.3356 77.3741C90.0168 77.5816 89.7102 77.8102 89.4172 78.051C89.2423 78.1941 89.2688 78.4932 89.4172 78.6416C89.5898 78.8142 89.8328 78.7847 90.007 78.6416C92.0921 76.9282 94.9874 76.2733 97.5958 76.8002C98.8799 77.0599 100.119 77.5929 101.124 78.4303C102.171 79.3003 102.943 80.4481 103.361 81.7451C103.922 83.488 103.786 85.3892 103.084 87.0731C102.37 88.7895 101.063 90.1857 99.4424 91.0859C96.1587 92.9091 91.5106 92.6971 88.9212 89.7624C87.6947 88.3738 87.0541 86.4976 87.0927 84.6525C87.1321 82.8217 87.8332 80.9933 89.0272 79.6047C89.3263 79.2564 89.6549 78.9346 90.0092 78.6401C90.1819 78.4947 90.1576 78.1979 90.0092 78.0495C89.8366 77.8807 89.5898 77.9064 89.4172 78.051Z" fill="#E41B3F"/>
<path d="M90.889 79.6289C88.498 81.6323 87.7999 85.2219 89.3816 87.9324C91.0193 90.7391 94.6626 91.5705 97.6011 90.5158C99.0434 90.0002 100.318 89.0666 101.169 87.7856C102.001 86.5325 102.416 84.9607 102.249 83.4608C102.11 82.2115 101.605 81.0266 100.775 80.0787C100.047 79.2488 99.0828 78.6507 98.041 78.2986C95.927 77.5816 93.4595 77.8989 91.5871 79.111C91.3456 79.2708 91.1139 79.4457 90.889 79.6289C90.7141 79.772 90.7406 80.0711 90.889 80.2195C91.0617 80.3921 91.3047 80.3626 91.4796 80.2195C92.9939 78.9778 95.1025 78.5023 96.9885 78.8809C98.917 79.2693 100.568 80.5405 101.188 82.4561C101.6 83.7258 101.506 85.1068 101 86.3379C100.486 87.5834 99.5409 88.5987 98.3696 89.2559C95.9884 90.5938 92.6024 90.4605 90.7013 88.3405C88.8455 86.2705 88.9712 83.0035 90.7535 80.9319C90.9746 80.6745 91.2192 80.4368 91.4796 80.2195C91.6522 80.0749 91.6295 79.7781 91.4796 79.6289C91.3085 79.4586 91.0632 79.4843 90.889 79.6289Z" fill="#E41B3F"/>
<path d="M53.0996 85.0159C50.3322 87.329 49.513 91.4736 51.321 94.6187C53.2146 97.913 57.4781 98.8837 60.9109 97.6457C62.5941 97.0393 64.0826 95.9399 65.0646 94.4324C66.008 92.9886 66.4759 91.1919 66.2896 89.4732C66.1322 88.0104 65.5348 86.618 64.5581 85.5156C63.7169 84.5669 62.6069 83.8817 61.4122 83.4774C58.9598 82.6476 56.1084 83.0072 53.9332 84.4057C53.6417 84.5912 53.3653 84.7971 53.0996 85.0159C52.9247 85.159 52.9512 85.4581 53.0996 85.6065C53.2722 85.7791 53.5152 85.7496 53.6901 85.6065C55.4883 84.1308 57.9891 83.5683 60.2333 84.0226C62.5161 84.4867 64.4581 86.0032 65.1872 88.2678C65.668 89.7609 65.559 91.3789 64.9699 92.8273C64.365 94.3121 63.2422 95.5242 61.8498 96.3056C59.0135 97.8964 54.9871 97.726 52.7452 95.1828C50.5768 92.7251 50.7418 88.8841 52.8399 86.4431C53.0996 86.141 53.3857 85.8624 53.6916 85.6065C53.8643 85.4619 53.8423 85.1643 53.6916 85.0159C53.519 84.8456 53.2737 84.8713 53.0996 85.0159Z" fill="#E41B3F"/>
<path d="M54.6494 86.6771C52.7149 88.3019 52.1433 91.1934 53.3948 93.4004C54.7123 95.7249 57.7143 96.4335 60.1311 95.5628C61.3153 95.1381 62.3586 94.3711 63.0544 93.3149C63.7116 92.3185 64.0455 91.0692 63.9304 89.8775C63.7358 87.8749 62.3904 86.2394 60.4983 85.5913C58.5214 84.916 56.2553 85.3634 54.6494 86.6771C54.4753 86.8202 54.501 87.1192 54.6494 87.2676C54.822 87.4403 55.0651 87.4107 55.24 87.2676C57.6341 85.3089 61.8892 85.8571 62.9113 89.0424C63.5783 91.1177 62.5365 93.3633 60.6747 94.4067C58.7796 95.4682 56.0918 95.3531 54.5941 93.6586C52.9284 91.7749 53.3782 88.8326 55.24 87.2691C55.4126 87.1245 55.3899 86.8277 55.24 86.6793C55.0689 86.5067 54.822 86.5325 54.6494 86.6771Z" fill="#E41B3F"/>
<path d="M62.0989 67.1407C61.9126 70.4653 64.2113 73.5446 67.2981 74.6288C68.8518 75.1739 70.5909 75.2353 72.1802 74.7938C73.7406 74.3615 75.0906 73.4333 76.0726 72.1484C76.9986 70.9362 77.5521 69.4363 77.6263 67.9122C77.7005 66.4032 77.2439 64.9647 76.3861 63.7283C75.501 62.4533 74.2888 61.36 72.8911 60.6732C72.2006 60.3333 71.473 60.0978 70.7075 60.0032C69.9898 59.9161 69.2546 60.0009 68.5527 60.1644C65.6847 60.8254 62.9863 63.0787 62.2715 66.0027C62.1799 66.3752 62.1246 66.7583 62.0989 67.1407C62.0633 67.6767 62.8984 67.6752 62.934 67.1407C63.1157 64.4324 65.3175 62.186 67.7691 61.2729C69.0184 60.8088 70.335 60.6437 71.6191 61.0541C72.9411 61.475 74.1124 62.3382 75.0331 63.3611C75.9091 64.334 76.5981 65.5295 76.754 66.8454C76.9153 68.2075 76.6125 69.6014 75.9537 70.7992C75.2761 72.0295 74.2456 73.0244 72.9691 73.6203C71.6358 74.2426 70.0731 74.3986 68.6345 74.1238C67.1641 73.8414 65.8187 73.1304 64.7905 72.0394C63.8153 71.0051 63.1271 69.6483 62.962 68.2302C62.9189 67.8683 62.9113 67.5041 62.9317 67.1407C62.9635 66.6039 62.1284 66.6054 62.0989 67.1407Z" fill="#E41B3F"/>
<path d="M64.6512 67.2739C64.5323 69.5203 66.0837 71.5858 68.1742 72.3081C70.2843 73.038 72.7087 72.3899 74.0586 70.5909C74.6787 69.7649 75.0406 68.7443 75.0755 67.7123C75.1088 66.7242 74.8029 65.7778 74.2403 64.9707C73.6483 64.1181 72.8389 63.383 71.9015 62.9264C70.9657 62.4699 69.9913 62.351 68.976 62.5834C66.7765 63.0847 64.814 64.9608 64.6512 67.2739C64.6141 67.8107 65.4492 67.8084 65.4863 67.2739C65.6067 65.5628 67.0157 64.1386 68.5717 63.5723C69.3545 63.2868 70.1677 63.1869 70.9718 63.4428C71.8031 63.7078 72.5398 64.2537 73.1213 64.8965C73.6649 65.4977 74.0957 66.2328 74.2108 67.046C74.3297 67.8993 74.1419 68.7927 73.7353 69.5476C72.8442 71.2057 70.9718 72.0371 69.1304 71.6956C67.0377 71.3079 65.3728 69.4476 65.4863 67.2739C65.5143 66.7378 64.6785 66.7394 64.6512 67.2739Z" fill="#E41B3F"/>
<path d="M71.1512 42.5875C73.8186 41.8901 76.5473 41.4518 79.3003 41.292C79.9817 41.2534 80.6646 41.2292 81.3476 41.2231C81.9972 41.2178 82.6733 41.1845 83.3192 41.264C83.694 41.3109 84.1846 41.4442 84.2512 41.8841C84.3307 42.4133 83.9022 42.8585 83.5274 43.1576C83.0723 43.5218 82.562 43.8148 82.1683 44.2509C81.7708 44.6908 81.4854 45.2458 81.5073 45.8507C81.5301 46.4489 81.842 46.9985 82.3894 47.262C82.874 47.496 83.4252 47.5066 83.9506 47.4642C86.5082 47.2507 89.0605 46.8645 91.6038 46.5268C94.4847 46.1445 97.3633 45.7546 100.254 45.4502C100.478 45.426 100.671 45.2753 100.671 45.0323C100.671 44.8248 100.48 44.5908 100.254 44.6151C95.0578 45.1602 89.8942 45.9847 84.7002 46.5511C83.9673 46.6306 82.3334 46.9667 82.3425 45.7826C82.3463 45.2109 82.7884 44.7597 83.2056 44.4273C83.6569 44.0669 84.1732 43.7792 84.5533 43.3355C84.9357 42.8865 85.1658 42.302 85.0644 41.7077C84.9622 41.1194 84.4905 40.7204 83.9431 40.5477C83.4009 40.3766 82.8013 40.3971 82.241 40.3902C81.5573 40.3827 80.8744 40.3902 80.1914 40.416C77.0675 40.5311 73.9541 40.9929 70.9309 41.7841C70.4107 41.9197 70.6296 42.7253 71.1512 42.5875Z" fill="#E41B3F"/>
<path d="M81.7951 47.6739C81.8102 49.036 81.8246 50.4004 81.8397 51.7632C81.8473 52.4522 81.8549 53.1427 81.8617 53.8309C81.8677 54.4101 81.842 55.0007 81.9457 55.5739C82.0366 56.0865 82.2963 56.5748 82.7551 56.8436C83.2192 57.1169 83.7818 57.1033 84.2845 56.9587C85.1795 56.699 85.9586 56.0918 86.7399 55.6034C90.2167 53.4281 93.7381 51.3233 97.1498 49.0473C98.8988 47.8821 100.634 46.6767 102.245 45.3275C102.418 45.1829 102.396 44.8861 102.245 44.737C102.075 44.5666 101.828 44.5923 101.656 44.737C100.312 45.8621 98.8746 46.8759 97.4246 47.8594C95.7377 49.0027 94.0183 50.0998 92.292 51.1802C90.6369 52.216 88.9697 53.2373 87.3101 54.2671C86.6082 54.7016 85.9086 55.1378 85.2128 55.5814C84.6389 55.9471 83.3972 56.7103 82.905 55.8358C82.6529 55.3869 82.7104 54.7872 82.7051 54.2936C82.6976 53.5584 82.6877 52.8232 82.6809 52.088C82.6643 50.6176 82.6491 49.148 82.6325 47.6754C82.6249 47.1356 81.7898 47.1356 81.7951 47.6739Z" fill="#E41B3F"/>
<path d="M70.2328 57.3501C73.1894 57.2411 76.1339 56.7451 78.9588 55.8638C79.7591 55.6132 80.5496 55.3331 81.3294 55.0227C81.5392 54.9394 81.686 54.744 81.6209 54.5086C81.5649 54.3102 81.3181 54.1338 81.1068 54.2171C78.4129 55.2884 75.579 56.0122 72.6981 56.3348C71.8788 56.4264 71.0551 56.4854 70.2305 56.5172C69.696 56.5339 69.6945 57.3705 70.2328 57.3501Z" fill="#E41B3F"/>
<path d="M70.706 40.9059C70.8431 40.0707 70.7416 39.2742 70.5985 39.278C70.4554 39.2818 68.7943 38.9661 68.7943 38.9661L68.4286 40.3736C67.5488 49.5561 67.8289 59.4148 69.1077 68.5512C69.375 68.5845 69.7331 68.6012 70.1488 68.5474C70.5281 68.4974 71.124 68.5603 71.0793 68.3097C69.032 56.6467 69.8595 46.009 70.706 40.9059Z" fill="#161515"/>
<path d="M68.0106 40.3736C67.6676 43.9654 67.4874 47.5717 67.4746 51.1787C67.4609 54.7849 67.6139 58.3934 67.9311 61.9876C68.1113 64.0258 68.3468 66.0602 68.6292 68.0871C68.6602 68.3097 68.9464 68.4323 69.1433 68.3786C69.3841 68.3119 69.4658 68.0886 69.4348 67.8645C68.9389 64.3135 68.6088 60.7398 68.4399 57.1578C68.2703 53.5841 68.265 50.0036 68.4225 46.4299C68.5118 44.4069 68.6527 42.3876 68.8457 40.3713C68.8685 40.1464 68.6383 39.9534 68.4286 39.9534C68.1855 39.9556 68.0333 40.1464 68.0106 40.3736Z" fill="#E41B3F"/>
<path d="M70.3032 40.7946C69.824 44.3508 69.54 47.9321 69.4719 51.5202C69.403 55.1007 69.5438 58.685 69.8891 62.2488C70.0859 64.2704 70.3494 66.2866 70.6765 68.293C70.7136 68.5156 70.99 68.6406 71.1906 68.5845C71.4283 68.5194 71.5192 68.2953 71.4821 68.0704C70.9142 64.5884 70.5501 61.0722 70.3865 57.547C70.2237 54.0149 70.2639 50.473 70.5054 46.9463C70.6409 44.9634 70.84 42.985 71.1073 41.0156C71.1368 40.793 71.0528 40.5659 70.8158 40.5015C70.6227 40.4493 70.3328 40.5697 70.3032 40.7946Z" fill="#E41B3F"/>
<path d="M80.6874 110.444C80.1468 109.815 79.6084 109.186 79.0686 108.557C78.1108 109.361 77.1531 110.164 76.1953 110.968C77.5793 111.995 79.083 113.45 80.4678 114.476C83.2283 110.797 86.6756 107.632 90.5756 105.194L91.9505 102.763C87.893 104.836 84.099 107.423 80.6874 110.444Z" fill="#161515"/>
<path d="M95.5553 84.2868C95.0154 83.6569 94.4771 83.0277 93.9373 82.3985C92.9795 83.2026 92.021 84.0059 91.0632 84.81C92.448 85.8367 93.9517 87.2919 95.3365 88.3186C98.097 84.6389 101.543 81.474 105.443 79.0353L106.819 76.6057C102.762 78.6772 98.9677 81.2643 95.5553 84.2868Z" fill="#161515"/>
<path d="M59.1196 89.8964C58.579 89.2665 58.0406 88.6373 57.5008 88.0081C56.543 88.8122 55.5852 89.6155 54.6275 90.4196C56.0123 91.4463 57.5152 92.9015 58.9 93.9282C61.6605 90.2485 65.1078 87.0837 69.0078 84.6449L70.3827 82.2153C66.3252 84.2868 62.5289 86.8739 59.1196 89.8964Z" fill="#161515"/>
<path d="M91.7408 102.404C88.554 104.033 85.5353 105.979 82.7256 108.199C81.9291 108.828 81.1515 109.48 80.3921 110.151C80.5889 110.151 80.7858 110.151 80.9819 110.151C80.4421 109.522 79.9037 108.893 79.3639 108.264C79.2079 108.081 78.9346 108.128 78.7733 108.264C77.8155 109.067 76.8578 109.871 75.9 110.675C75.6736 110.865 75.7887 111.186 75.9855 111.33C77.4642 112.431 78.7786 113.736 80.2581 114.839C80.4534 114.983 80.7078 114.852 80.8297 114.688C82.9459 111.874 85.474 109.355 88.2996 107.254C89.1052 106.654 89.9366 106.088 90.7891 105.553C91.2434 105.269 90.8239 104.546 90.3674 104.832C87.2896 106.76 84.4867 109.125 82.079 111.844C81.3885 112.624 80.7351 113.431 80.1097 114.263C80.3012 114.213 80.4905 114.163 80.6813 114.113C79.2019 113.012 77.8875 111.707 76.408 110.604C76.436 110.824 76.4641 111.043 76.4936 111.26C77.4514 110.456 78.4091 109.652 79.3669 108.848C79.1708 108.848 78.974 108.848 78.7771 108.848C79.317 109.478 79.8553 110.107 80.3959 110.736C80.5481 110.915 80.8282 110.877 80.9857 110.736C83.6235 108.403 86.4893 106.332 89.5323 104.558C90.3969 104.056 91.2752 103.576 92.1663 103.12C92.6411 102.878 92.2201 102.158 91.7408 102.404Z" fill="#E41B3F"/>
<path d="M106.609 76.2453C103.423 77.8754 100.404 79.8205 97.5935 82.0404C96.7977 82.6696 96.0194 83.3215 95.2608 83.993C95.4569 83.993 95.6537 83.993 95.8506 83.993C95.3107 83.3639 94.7724 82.7347 94.2318 82.1055C94.0758 81.9238 93.8033 81.97 93.642 82.1055C92.6842 82.9088 91.7264 83.7129 90.7687 84.517C90.5415 84.7063 90.6566 85.0273 90.8535 85.1719C92.3329 86.2728 93.6473 87.5773 95.1267 88.6805C95.3221 88.8251 95.5757 88.6933 95.6984 88.5298C97.8146 85.7155 100.343 83.1965 103.168 81.0955C103.974 80.4958 104.805 79.9302 105.657 79.3949C106.112 79.111 105.693 78.3872 105.236 78.6734C102.158 80.6018 99.3554 82.9664 96.9477 85.686C96.2571 86.4658 95.6037 87.273 94.9783 88.1051C95.1691 88.0543 95.3592 88.0044 95.55 87.9544C94.0705 86.8535 92.7561 85.549 91.2767 84.4458C91.3047 84.6654 91.3327 84.8842 91.3623 85.1015C92.32 84.2974 93.2778 83.4941 94.2356 82.69C94.0387 82.69 93.8426 82.69 93.6458 82.69C94.1856 83.3192 94.7239 83.9484 95.2645 84.5783C95.4167 84.7562 95.6969 84.7191 95.8543 84.5783C98.4922 82.2448 101.358 80.1733 104.401 78.4001C105.266 77.8973 106.144 77.4181 107.035 76.9615C107.51 76.7222 107.089 75.9999 106.609 76.2453Z" fill="#E41B3F"/>
<path d="M70.173 81.8549C66.9862 83.4842 63.9675 85.4301 61.1578 87.65C60.3613 88.2792 59.5837 88.9311 58.8243 89.6027C59.0211 89.6027 59.218 89.6027 59.4148 89.6027C58.8742 88.9735 58.3359 88.3443 57.7961 87.7151C57.6401 87.5334 57.3668 87.5796 57.2055 87.7151C56.2477 88.5185 55.29 89.3225 54.3322 90.1266C54.1058 90.3159 54.2209 90.6369 54.4177 90.7815C55.8972 91.8824 57.2108 93.187 58.6903 94.2901C58.8856 94.4347 59.14 94.303 59.2619 94.1394C61.3781 91.3252 63.9069 88.8062 66.7318 86.7051C67.5374 86.1055 68.3687 85.5391 69.2213 85.0046C69.6756 84.7207 69.2561 83.9968 68.7996 84.283C65.7218 86.2115 62.9189 88.576 60.5112 91.2956C59.8207 92.0755 59.1673 92.8826 58.5419 93.7147C58.7334 93.664 58.9227 93.614 59.1135 93.564C57.6341 92.4631 56.3204 91.1586 54.841 90.0554C54.8682 90.275 54.8962 90.4938 54.9258 90.7111C55.8836 89.907 56.8421 89.1037 57.7999 88.2996C57.603 88.2996 57.4062 88.2996 57.2093 88.2996C57.7491 88.9288 58.2875 89.558 58.8281 90.1872C58.9802 90.3659 59.2604 90.3288 59.4179 90.1872C62.0557 87.8544 64.9223 85.7829 67.9644 84.0097C68.8291 83.507 69.7074 83.0277 70.5985 82.5711C71.0732 82.3304 70.65 81.6096 70.173 81.8549Z" fill="#E41B3F"/>
<path d="M69.6127 37.5631C71.7403 37.4215 71.9334 40.7764 69.8929 40.9876C67.8062 41.2026 67.4095 37.7092 69.6127 37.5631Z" fill="#161515"/>
<mask id="mask0_21_297" style="mask-type:luminance" maskUnits="userSpaceOnUse" x="67" y="37" width="5" height="5">
<path d="M67.6457 37.0778H71.9099V41.479H67.6457V37.0778Z" fill="white"/>
</mask>
<g mask="url(#mask0_21_297)">
<path d="M69.6127 37.9803C69.7058 37.975 69.7982 37.975 69.8929 37.9826C69.9156 37.9841 69.9375 37.9864 69.9595 37.9901C69.9428 37.9879 69.8724 37.9712 69.9451 37.9901C69.9913 38.0007 70.0375 38.0083 70.0821 38.0212C70.1155 38.031 70.1488 38.0454 70.1844 38.0545C70.2548 38.0734 70.1806 38.0515 70.1677 38.0454C70.1866 38.053 70.2048 38.0621 70.2215 38.0696C70.2957 38.1067 70.3623 38.1514 70.4335 38.1961C70.4796 38.2271 70.3736 38.1461 70.4168 38.1832C70.4312 38.1961 70.4463 38.2067 70.4592 38.2203C70.4834 38.2423 70.5077 38.2642 70.5319 38.2885C70.5576 38.315 70.5834 38.3445 70.6076 38.3725C70.6841 38.4596 70.5834 38.324 70.6447 38.4225C70.6818 38.4838 70.7212 38.5429 70.7522 38.6064C70.7598 38.6193 70.8098 38.7321 70.7855 38.6731C70.7621 38.617 70.8082 38.7359 70.8158 38.7564C70.8378 38.8253 70.8582 38.8957 70.8734 38.9661C70.8802 39.0032 70.8877 39.0426 70.8938 39.0797C70.9044 39.1372 70.8862 38.9956 70.89 39.0554C70.8915 39.0797 70.8953 39.1039 70.8976 39.1274C70.9029 39.2053 70.9044 39.2833 70.9029 39.3598C70.9006 39.3984 70.8976 39.4378 70.8953 39.4764C70.8938 39.4915 70.8915 39.5067 70.8915 39.5196C70.8877 39.5733 70.9105 39.4325 70.8915 39.5082C70.8749 39.5847 70.862 39.6589 70.84 39.7331C70.8287 39.7702 70.8158 39.805 70.8045 39.8421C70.7992 39.861 70.7916 39.8777 70.784 39.8959C70.7992 39.8535 70.812 39.8368 70.7855 39.889C70.7545 39.9519 70.7227 40.017 70.6841 40.0761C70.6636 40.1079 70.6409 40.1397 70.619 40.1707C70.6841 40.0761 70.6038 40.1874 70.5856 40.2078C70.5591 40.2358 70.5334 40.2638 70.5054 40.2896C70.494 40.2987 70.4017 40.3804 70.4501 40.3418C70.494 40.3062 70.4145 40.366 70.3979 40.3766C70.357 40.4047 70.3146 40.4289 70.2699 40.4531C70.251 40.4622 70.1586 40.5054 70.2086 40.4849C70.2608 40.4622 70.142 40.5091 70.1268 40.5122C70.0859 40.5258 70.0435 40.5364 70.0026 40.5462C69.9799 40.5515 69.8262 40.5758 69.93 40.5629C69.8414 40.5735 69.7498 40.5773 69.6612 40.5758C69.6241 40.5735 69.587 40.5697 69.5499 40.5682C69.4885 40.5644 69.6279 40.5833 69.568 40.5697C69.5438 40.5644 69.5181 40.5606 69.4938 40.5553C69.4159 40.5387 69.3432 40.5122 69.2675 40.4864C69.3545 40.5182 69.2728 40.4887 69.2379 40.4698C69.2046 40.4531 69.1705 40.4342 69.1395 40.4137C69.1077 40.3941 69.0782 40.3713 69.0464 40.3509C69.1372 40.4137 69.0464 40.3494 69.0222 40.3289C68.9631 40.2752 68.9109 40.2154 68.8594 40.1578C68.8223 40.1169 68.9056 40.2229 68.8722 40.1768C68.8609 40.1616 68.8495 40.1465 68.8389 40.1298C68.82 40.1026 68.8018 40.0761 68.7852 40.0465C68.742 39.9776 68.7087 39.9057 68.6731 39.833C68.6496 39.7808 68.7011 39.9072 68.683 39.8535C68.6769 39.8353 68.6701 39.8179 68.6625 39.7997C68.6496 39.7641 68.6383 39.727 68.6269 39.6899C68.6027 39.6119 68.586 39.5324 68.5717 39.4529C68.5512 39.3484 68.5694 39.4764 68.5656 39.4211C68.5641 39.3878 68.5603 39.3545 68.558 39.3204C68.555 39.2394 68.555 39.1576 68.558 39.0774C68.5603 39.0554 68.5732 38.929 68.5656 38.9903C68.5565 39.0532 68.577 38.9275 68.5823 38.9048C68.5989 38.8215 68.6254 38.742 68.6512 38.6617C68.6883 38.5519 68.6254 38.7041 68.6678 38.6193C68.6867 38.5822 68.7049 38.5451 68.7254 38.508C68.7473 38.4671 68.7776 38.43 68.7996 38.3907C68.8276 38.3445 68.7534 38.4406 68.82 38.3649C68.8775 38.3013 68.9374 38.2438 69.0017 38.1885C68.9169 38.2627 69.032 38.1696 69.0593 38.1529C69.0964 38.1287 69.1357 38.109 69.1766 38.0886C69.1895 38.081 69.2046 38.0749 69.2175 38.0681C69.303 38.0212 69.1372 38.0901 69.2319 38.0621C69.2788 38.0492 69.3227 38.031 69.3697 38.0197C69.4181 38.0068 69.4681 37.9992 69.5158 37.9864C69.5347 37.9826 69.5976 37.975 69.509 37.9864C69.5423 37.9864 69.5771 37.9826 69.6127 37.9803C69.8376 37.9636 70.0307 37.8009 70.0307 37.5631C70.0307 37.3496 69.8391 37.1285 69.6127 37.1452C69.1395 37.1808 68.6973 37.3329 68.3445 37.6578C68.0538 37.925 67.8546 38.3036 67.7729 38.6875C67.6078 39.4726 67.8236 40.388 68.4399 40.9316C69.1115 41.5245 70.1753 41.5835 70.9006 41.0414C71.6025 40.5182 71.8516 39.6104 71.6842 38.773C71.4859 37.7819 70.6296 37.0876 69.6127 37.1452C69.3878 37.158 69.1948 37.3269 69.1948 37.5631C69.1948 37.7781 69.3863 37.9939 69.6127 37.9803Z" fill="#E41B3F"/>
</g>
<path d="M67.7358 68.5754C69.1115 69.2137 70.7689 69.1228 72.0409 68.2764C72.2279 68.1522 72.3096 67.9069 72.1908 67.7047C72.0817 67.5192 71.8084 67.4299 71.6191 67.554C70.6099 68.2264 69.269 68.3672 68.159 67.8531C67.9554 67.7585 67.71 67.7956 67.5874 68.0038C67.4799 68.1832 67.5298 68.4785 67.7358 68.5754Z" fill="#E41B3F"/>
</svg>
